<?xml version="1.0" standalone="no"?><!DOCTYPE svg PUBLIC "-//W3C//DTD SVG 1.1//EN" "http://www.w3.org/Graphics/SVG/1.1/DTD/svg11.dtd"><svg t="1576054588778" class="icon" viewBox="0 0 1024 1024" version="1.1" xmlns="http://www.w3.org/2000/svg" p-id="1286" width="200" height="200" xmlns:xlink="http://www.w3.org/1999/xlink"><defs><style type="text/css"></style></defs><path d="M646.501 668.778h94.313c6.407 0 11.603-2.563 11.603 5.461 0 8.028-5.194 5.459-11.603 5.459H673c-6.409 0-11.591 13.815-11.591 21.842 0 8.029 5.182 21.84 11.591 21.84h143.824c6.409 0 11.612 8.354 11.612 16.379 0 8.029-5.203 16.379-11.612 16.379h-67.813c-4.468 0-8.339 5.039-10.28 10.211-1.471 3.925-5.13 7.595-9.31 7.595-54.173-0.021-362.871 18.309-366.688-0.289-2.837-13.9-104.175-17.517-110.083-17.517h-67.813c-6.41 0-11.592-8.35-11.592-16.379 0-8.024 5.184-16.379 11.592-16.379h143.824c6.409 0 11.603-13.811 11.603-21.84 0-8.025-5.192-21.842-11.603-21.842h-67.812c-6.409 0-11.593 2.569-11.593-5.459 0-8.023 5.184-5.461 11.593-5.461h385.652z" fill="#F2B322" p-id="1287"></path><path d="M637.877 378.409l0.073 3.05c-9.447 9.454-23.13 9.672-32.846 0.512l-7.475-7.774c-9.277-8.745-23.289-9.001-32.866-0.582l-7.337 6.622a24.569 24.569 0 0 1-31.513 0.837l-15.548-12.317c-8.402-6.627-20.091-7.107-28.983-1.167l-13.267 8.856a24.709 24.709 0 0 1-29.369-1.456l-10.216-8.381c-9.148-7.502-22.341-7.459-31.447 0.106l-15.356 12.765c-6.036 5.022-17.479 5.988-24.389 2.25-3.264-1.759-3.221-2.991-14.141-3.833v257.197c0 50.131 40.459 76.523 83.093 76.523h168.885c42.646 0 64.697-26.394 64.697-76.523V373.686c0.003-4.469-14.328-2.939-21.995 4.723" fill="#E84135" p-id="1288"></path><path d="M672.385 306.065h-1.952c0.662 0 1.302 0.059 1.952 0.112v-0.112z" fill="#D5BC18" p-id="1289"></path><path d="M636.99 371.941l-1.822 3.061c-5.577 5.556-12.926 7.827-20.018 6.969V604.8c0 50.131-29.688 84.836-72.312 84.836H373.954c-3.135 0-6.228-0.25-9.299-0.612 14.845 15.42 35.255 24.43 56.945 24.43h168.873c47.167 0 70.372-21.838 72.323-84.824V367.22c0.002-4.46-18.148-2.941-25.806 4.721" fill="#060404" p-id="1290"></path><path d="M506.997 325.17v126.388s-10.919 5.199-10.919 11.608v67.811c0 6.398-8.35 11.599-16.38 11.599-8.029 0-16.38-5.199-16.38-11.599V387.153c0-6.409-8.35-11.608-16.379-11.608-8.03 0-16.38 5.199-16.38 11.608v67.801c0 6.409-2.89 11.607-10.919 11.607-8.03 0-10.92-5.198-10.92-11.607V316.478l98.277 8.692z" fill="#060404" p-id="1291"></path><path d="M485.158 325.17v150.217s-10.92 5.199-10.92 11.608v67.801c0 6.41-13.81 11.607-21.839 11.607-8.03 0-21.84-5.197-21.84-11.607V410.971c0-6.398-2.89-11.598-10.919-11.598-8.03 0-10.92 5.199-10.92 11.598v67.811c0 6.409-2.891 11.607-10.92 11.607-8.03 0-10.919-5.198-10.919-11.607V340.306l98.277-15.136z" fill="#F2B322" p-id="1292"></path><path d="M677.27 356.289c0 20.333-13.971 36.821-31.218 36.821H355.631c-17.247 0-31.218-16.487-31.218-36.821v-5.115c0-20.333 13.971-36.827 31.218-36.827h290.421c17.247 0 31.218 16.494 31.218 36.827v5.115z" fill="#152B3B" p-id="1293"></path><path d="M662.211 417.482v-35.741c-8.701-3.119-13.532-3.407-20.527 3.594l-3.05 3.05c-9.448 9.443-24.697 9.671-34.413 0.511l-8.253-7.773c-9.278-8.75-23.686-9-33.263-0.582l-7.518 6.617c-8.958 7.875-22.266 8.222-31.629 0.832l-15.591-12.317c-8.394-6.627-20.112-7.097-29.018-1.167l-13.275 8.851a24.707 24.707 0 0 1-29.358-1.461l-10.227-8.409c-9.149-7.502-22.342-7.502-31.448 0.064l-15.367 12.669c-6.025 5.012-14.535 5.791-21.435 2.053-3.444-1.866-7.582-3.044-11.986-3.898v35.606c4.446 0.854 8.51 2.155 11.986 4.032 6.898 3.728 15.408 2.959 21.435-2.063l15.367-12.669c9.106-7.565 22.298-7.555 31.448-0.053l10.227 8.408c8.403 6.879 20.315 7.481 29.358 1.456l13.275-8.846c8.905-5.929 20.624-5.46 29.018 1.168l15.591 12.316c9.363 7.392 22.671 7.033 31.629-0.832l7.518-6.617c9.577-8.42 23.983-8.169 33.263 0.57l8.253 7.785c9.716 9.16 24.965 8.932 34.413-0.513l3.05-3.049c6.995-6.994 11.826-6.722 20.527-3.592" fill="#060404" p-id="1294"></path><path d="M647.58 318.649h-1.911c1.155 3.863 1.911 7.956 1.911 12.279 0 20.332-13.971 36.826-31.219 36.826H326.974c4.304 14.268 15.73 24.553 29.309 24.553H647.58c17.229 0 31.206-16.487 31.206-36.826 0-20.344-13.978-36.832-31.206-36.832" fill="#060404" p-id="1295"></path><path d="M383.425 657.798c-6.036 0-10.92-4.889-10.92-10.92v-90.557c0-6.025 4.885-10.92 10.92-10.92s10.919 4.895 10.919 10.92v90.557c0.001 6.031-4.883 10.92-10.919 10.92M575.425 552.798c-6.036 0-10.92-4.889-10.92-10.92v-90.557c0-6.025 4.885-10.92 10.92-10.92s10.919 4.895 10.919 10.92v90.557c0.001 6.031-4.883 10.92-10.919 10.92" fill="#FFFFFF" p-id="1296"></path></svg>